<?xml version="1.0" encoding="UTF-8" standalone="no"?>
<svg
   width="417"
   height="417"
   viewBox="0 0 417 417"
   version="1.1"
   id="svg1"
   sodipodi:docname="avatar.svg"
   inkscape:version="1.3 (0e150ed6c4, 2023-07-21)"
   xmlns:inkscape="http://www.inkscape.org/namespaces/inkscape"
   xmlns:sodipodi="http://sodipodi.sourceforge.net/DTD/sodipodi-0.dtd"
   xmlns="http://www.w3.org/2000/svg"
   xmlns:svg="http://www.w3.org/2000/svg">
  <defs
     id="defs1" />
  <sodipodi:namedview
     id="namedview1"
     pagecolor="#ffffff"
     bordercolor="#000000"
     borderopacity="0.25"
     inkscape:showpageshadow="2"
     inkscape:pageopacity="0.0"
     inkscape:pagecheckerboard="0"
     inkscape:deskcolor="#d1d1d1"
     inkscape:zoom="1.5878906"
     inkscape:cx="238.05166"
     inkscape:cy="278.04182"
     inkscape:window-width="1920"
     inkscape:window-height="1009"
     inkscape:window-x="-8"
     inkscape:window-y="-8"
     inkscape:window-maximized="1"
     inkscape:current-layer="svg1" />
  <path
     d="M 208.61008,0.57810581 C 93.920086,0.57810581 0.61008613,93.888106 0.61008613,208.57811 c 0,114.69 93.30999987,208 207.99999387,208 114.69,0 208,-93.31 208,-208 0,-114.690004 -93.31,-208.00000419 -208,-208.00000419 z m -50.22,116.82000419 c 12.67,-13.43 30.5,-20.820004 50.22,-20.820004 19.72,0 37.39,7.440004 50.11,20.940004 12.89,13.68 19.16,32.06 17.68,51.82 -2.96,39.24 -33.36,71.24 -67.79,71.24 -34.43,0 -64.89,-32 -67.79,-71.25 -1.47,-19.92 4.79,-38.36 17.57,-51.93 z m 50.22,267.18 a 175.49,175.49 0 0 1 -125.999994,-53.22 122.91,122.91 0 0 1 35.139994,-33.44 c 25.49,-16.34 57.75,-25.34 90.86,-25.34 33.11,0 65.37,9 90.83,25.34 a 122.87,122.87 0 0 1 35.17,33.44 175.45,175.45 0 0 1 -126,53.22 z"
     id="path1"
     style="fill:#ffffff" />
  <path
     style="fill:none;stroke-width:0.629766"
     d="m 192.54838,383.5955 c -0.86593,-0.14654 -4.97515,-0.72181 -9.13161,-1.27839 -33.75266,-4.51973 -66.50281,-20.12414 -93.696992,-44.64367 l -6.78925,-6.1215 1.70433,-2.28888 c 19.074902,-25.61716 49.230082,-44.13249 84.612172,-51.95204 15.10335,-3.33789 20.48879,-3.86698 39.36039,-3.86698 13.87514,0 19.17705,0.24153 24.87577,1.1332 26.80774,4.19461 48.33757,12.2054 68.01476,25.30686 12.07923,8.04258 22.59776,17.98508 31.0847,29.38244 l 1.70699,2.29236 -6.79191,6.15813 c -26.59474,24.11309 -57.85561,39.08532 -93.38476,44.72616 -6.27981,0.99702 -37.38622,1.8594 -41.56459,1.15231 z"
     id="path2" />
  <path
     style="fill:#02305f;fill-opacity:1;stroke-width:0.629766"
     d="m 192.54838,383.5955 c -0.86593,-0.14654 -4.97515,-0.72181 -9.13161,-1.27839 -33.75266,-4.51973 -66.50281,-20.12414 -93.696992,-44.64367 l -6.78925,-6.1215 1.70433,-2.28888 c 19.074902,-25.61716 49.230082,-44.13249 84.612172,-51.95204 15.10335,-3.33789 20.48879,-3.86698 39.36039,-3.86698 13.87514,0 19.17705,0.24153 24.87577,1.1332 26.80774,4.19461 48.33757,12.2054 68.01476,25.30686 12.07923,8.04258 22.59776,17.98508 31.0847,29.38244 l 1.70699,2.29236 -6.79191,6.15813 c -26.59474,24.11309 -57.85561,39.08532 -93.38476,44.72616 -6.27981,0.99702 -37.38622,1.8594 -41.56459,1.15231 z"
     id="path5" />
  <path
     style="fill:#02305f;fill-opacity:1;stroke-width:0.629766"
     d="m 201.36923,239.74467 c -22.39025,-3.54865 -41.64992,-18.83917 -52.42453,-41.62057 -17.34268,-36.66869 -5.14697,-77.27903 28.16479,-93.78555 19.89967,-9.860624 43.30661,-9.858574 63.11341,0.006 17.55643,8.74338 29.46451,23.91388 34.44146,43.87728 1.84175,7.38756 1.98376,22.38279 0.28832,30.44285 -7.30544,34.7296 -33.60347,59.93788 -64.0198,61.36691 -3.29053,0.1546 -7.59417,0.0257 -9.56365,-0.28645 z"
     id="path6" />
</svg>
