<?xml version="1.0" encoding="UTF-8" standalone="no"?>
<!-- Created with Inkscape (http://www.inkscape.org/) -->

<svg
   width="300mm"
   height="262mm"
   viewBox="0 0 300 262"
   version="1.1"
   id="svg1"
   xml:space="preserve"
   xmlns:inkscape="http://www.inkscape.org/namespaces/inkscape"
   xmlns:sodipodi="http://sodipodi.sourceforge.net/DTD/sodipodi-0.dtd"
   xmlns:xlink="http://www.w3.org/1999/xlink"
   xmlns="http://www.w3.org/2000/svg"
   xmlns:svg="http://www.w3.org/2000/svg"><sodipodi:namedview
     id="namedview1"
     pagecolor="#ffffff"
     bordercolor="#000000"
     borderopacity="0.25"
     inkscape:showpageshadow="2"
     inkscape:pageopacity="0.0"
     inkscape:pagecheckerboard="0"
     inkscape:deskcolor="#d1d1d1"
     inkscape:document-units="mm" /><defs
     id="defs1"><linearGradient
       id="linearGradient12"
       inkscape:collect="always"><stop
         style="stop-color:#02305f;stop-opacity:1;"
         offset="0.52882707"
         id="stop13" /><stop
         style="stop-color:#000000;stop-opacity:1;"
         offset="1"
         id="stop14" /></linearGradient><linearGradient
       inkscape:collect="always"
       xlink:href="#linearGradient12"
       id="linearGradient14"
       x1="-33.19986"
       y1="88.603851"
       x2="264.90573"
       y2="88.603851"
       gradientUnits="userSpaceOnUse"
       gradientTransform="translate(34.21792,42.768335)" /></defs><g
     inkscape:label="Capa 1"
     inkscape:groupmode="layer"
     id="layer1"><path
       style="fill:url(#linearGradient14)"
       d="m 142.81886,261.16282 c -0.11032,-0.11139 -1.77719,-0.26779 -3.70417,-0.34756 -4.70262,-0.19466 -8.76681,-0.56945 -15.49803,-1.42922 -0.77611,-0.0991 -1.72861,-0.1861 -2.11667,-0.19327 -0.38805,-0.007 -1.02305,-0.15483 -1.41111,-0.32812 -0.38805,-0.17329 -1.89618,-0.50413 -3.35139,-0.7352 -3.17951,-0.50487 -13.79246,-2.81688 -14.2813,-3.11115 -0.19061,-0.11475 -0.58749,-0.23104 -0.88194,-0.25842 -1.11679,-0.10386 -7.610522,-2.00621 -8.031905,-2.35297 -0.242535,-0.19957 -0.440972,-0.24462 -0.440972,-0.10009 0,0.14453 -0.218004,0.0819 -0.484453,-0.13928 -0.266449,-0.22113 -0.717265,-0.31272 -1.001814,-0.20353 -0.284548,0.1092 -0.719532,-0.0451 -0.96663,-0.3428 -0.247099,-0.29774 -0.586752,-0.45637 -0.754785,-0.35252 -0.168033,0.10385 -0.665983,-0.011 -1.106556,-0.25522 -0.440572,-0.24423 -0.938572,-0.40416 -1.106666,-0.35541 -0.168095,0.0487 -0.684032,-0.15932 -1.146528,-0.46235 -0.462496,-0.30304 -0.840902,-0.44969 -0.840902,-0.32589 0,0.1238 -0.391243,-0.0313 -0.869428,-0.34458 -0.478185,-0.31332 -1.470373,-0.66017 -2.204861,-0.77078 -0.734489,-0.11062 -1.49545,-0.40594 -1.691025,-0.65629 -0.503796,-0.64488 -5.498923,-2.69134 -5.925571,-2.42765 -0.194833,0.12041 -0.257439,0.0623 -0.139124,-0.12914 0.231177,-0.37405 -2.93101,-1.91955 -4.266387,-2.08517 -0.444892,-0.0552 -1.190508,-0.46761 -1.656926,-0.91652 -0.466417,-0.44891 -0.975539,-0.79396 -1.131383,-0.76678 -0.155844,0.0272 -0.680228,-0.22895 -1.165297,-0.56918 -0.48507,-0.34022 -1.154834,-0.57567 -1.488365,-0.52321 -0.333532,0.0525 -0.571657,-0.0789 -0.529167,-0.29182 0.04249,-0.21296 -0.240246,-0.45344 -0.628302,-0.53441 -0.388055,-0.081 -0.992831,-0.45111 -1.343947,-0.82253 -0.351115,-0.37142 -0.771043,-0.59332 -0.933173,-0.49312 -0.16213,0.1002 -0.384782,-0.0523 -0.494782,-0.33901 -0.123696,-0.32234 -0.429064,-0.43329 -0.800393,-0.2908 -0.406376,0.15594 -0.517963,0.097 -0.345312,-0.18233 0.140294,-0.227 0.08696,-0.41273 -0.118518,-0.41273 -0.775774,0 -0.91027,-0.0635 -1.189029,-0.56165 -0.157446,-0.28134 -0.418624,-0.42972 -0.580396,-0.32974 -0.161771,0.1 -0.38413,-0.0528 -0.49413,-0.33941 -0.116325,-0.30314 -0.433015,-0.43178 -0.756948,-0.30748 -0.359395,0.13792 -0.520547,0.042 -0.454326,-0.27053 0.0588,-0.27749 -0.186289,-0.48489 -0.574036,-0.48574 -0.372161,-8.3e-4 -0.742577,-0.19926 -0.823148,-0.44098 -0.08057,-0.24171 -0.450762,-0.43947 -0.822649,-0.43947 -0.371887,0 -0.63647,-0.19844 -0.587963,-0.44097 0.04851,-0.24254 -0.229306,-0.44119 -0.617361,-0.44144 -0.388596,-2.6e-4 -0.705556,-0.23581 -0.705556,-0.52434 0,-0.28813 -0.313542,-0.58425 -0.69676,-0.65805 -0.383218,-0.0738 -0.875072,-0.37804 -1.09301,-0.67609 -0.217938,-0.29805 -0.561035,-0.44006 -0.762438,-0.31559 -0.201404,0.12448 -0.445233,-0.0759 -0.541842,-0.44538 -0.09661,-0.36943 -0.55122,-0.72861 -1.010246,-0.79816 -0.459026,-0.0695 -0.792536,-0.32823 -0.741132,-0.57485 0.0514,-0.24662 -0.481692,-0.68872 -1.184658,-0.98243 -0.702966,-0.29372 -1.182596,-0.62956 -1.065844,-0.74631 0.116751,-0.11675 -0.114482,-0.44114 -0.51385,-0.72087 -0.399369,-0.27973 -0.808463,-0.42626 -0.909098,-0.32563 -0.227826,0.22783 -1.341367,-0.8607 -1.618037,-1.58169 -0.112881,-0.29416 -0.754886,-0.79567 -1.426678,-1.11445 -1.395158,-0.66205 -4.989104,-3.98626 -5.309907,-4.91139 -0.117744,-0.33955 -0.396542,-0.61736 -0.619552,-0.61736 -0.68699,0 -2.929551,-2.12041 -3.676666,-3.47641 -0.389733,-0.70735 -0.809628,-1.20672 -0.933101,-1.1097 -0.370138,0.29082 -1.630285,-1.04675 -1.864197,-1.97872 -0.119883,-0.47766 -0.611573,-1.01811 -1.092644,-1.20101 -0.481071,-0.18291 -0.854713,-0.4551 -0.830315,-0.60489 0.117902,-0.72383 -0.100422,-1.088 -0.754875,-1.25914 -0.393625,-0.10293 -0.692326,-0.31989 -0.66378,-0.48212 0.130996,-0.74444 -0.07508,-1.1769 -0.560816,-1.1769 -0.291043,0 -0.529168,-0.25299 -0.529168,-0.5622 0,-0.3092 -0.306515,-0.64235 -0.681145,-0.74031 -0.374629,-0.098 -0.603776,-0.37975 -0.509214,-0.62617 0.09462,-0.24658 -0.154951,-0.53352 -0.555033,-0.63815 -0.488676,-0.12779 -0.656297,-0.37426 -0.511376,-0.75192 0.144037,-0.37535 0.02053,-0.56181 -0.372142,-0.56181 -0.323252,0 -0.499898,-0.14211 -0.392547,-0.31581 0.10735,-0.1737 -0.0585,-0.41316 -0.368561,-0.53214 -0.328939,-0.12623 -0.477507,-0.44105 -0.356699,-0.75588 0.117021,-0.30495 -0.01957,-0.6265 -0.314149,-0.73954 -0.286656,-0.11 -0.433361,-0.34212 -0.326011,-0.51582 0.107351,-0.17369 -0.04733,-0.31581 -0.343732,-0.31581 -0.334099,0 -0.461741,-0.20111 -0.335854,-0.52917 0.127549,-0.33238 -0.0036,-0.52916 -0.352778,-0.52916 -0.349142,0 -0.480327,-0.19678 -0.352778,-0.52917 0.12755,-0.33239 -0.0036,-0.52917 -0.352778,-0.52917 -0.349142,0 -0.480327,-0.19677 -0.352777,-0.52916 0.111683,-0.29104 0.02733,-0.52917 -0.187461,-0.52917 -0.214787,0 -0.390521,-0.25511 -0.390521,-0.56691 0,-0.34692 -0.195961,-0.49171 -0.504992,-0.37312 -0.348976,0.13391 -0.465578,-0.0109 -0.377415,-0.46868 0.07017,-0.36435 -0.09946,-0.85088 -0.376952,-1.08118 -0.277492,-0.2303 -0.50453,-0.71678 -0.50453,-1.08108 0,-0.37318 -0.247509,-0.66236 -0.56691,-0.66236 -0.355706,0 -0.492231,-0.19461 -0.366458,-0.52237 0.114244,-0.29772 -0.241698,-1.00647 -0.827638,-1.64799 -0.56545,-0.61909 -0.94613,-1.25823 -0.845956,-1.42032 0.100174,-0.16208 -0.451886,-1.6033 -1.226799,-3.2027 -0.774912,-1.59941 -1.5165362,-3.34457 -1.6480522,-3.87815 -0.131516,-0.53358 -0.459039,-0.97014 -0.727829,-0.97014 -0.308236,0 -0.443079,-0.29312 -0.365147,-0.79375 0.14185,-0.91122 -0.452347,-2.44045 -0.852232,-2.19331 -0.14756,0.0912 -0.185206,-0.15191 -0.08366,-0.54023 0.107904,-0.41262 0.01105,-0.70604 -0.233061,-0.70604 -0.248392,0 -0.332303,-0.26905 -0.207021,-0.66378 0.129973,-0.40951 0.01443,-0.73908 -0.301621,-0.86037 -0.316847,-0.12158 -0.439751,-0.474 -0.322146,-0.92372 0.115524,-0.44176 0.02074,-0.72713 -0.241516,-0.72713 -0.239871,0 -0.340921,-0.23648 -0.22743,-0.53223 0.11233,-0.29273 0.03534,-0.96742 -0.171096,-1.49931 -0.206432,-0.53189 -0.455217,-1.36395 -0.552854,-1.84902 -0.297568,-1.47833 -0.406012,-1.93638 -0.480238,-2.02847 -0.0391,-0.0485 -0.105029,-0.36601 -0.146512,-0.70556 -0.04148,-0.33955 -0.238903,-1.01423 -0.438714,-1.4993 -0.19981,-0.48507 -0.287792,-1.08038 -0.195514,-1.32292 0.09228,-0.24253 -0.0095,-0.44097 -0.226113,-0.44097 -0.251535,0 -0.345849,-0.57667 -0.260965,-1.59563 0.07311,-0.87759 0.0022,-1.67642 -0.157614,-1.77518 -0.159796,-0.0988 -0.201111,-0.41261 -0.09181,-0.69743 0.114186,-0.29757 -0.0049,-0.52017 -0.279991,-0.52327 -0.383309,-0.004 -0.377775,-0.0693 0.02777,-0.32589 0.394201,-0.24945 0.414431,-0.43141 0.09125,-0.82081 -0.228375,-0.27518 -0.302139,-0.61341 -0.163921,-0.75163 0.138218,-0.13821 0.01778,-0.40142 -0.267644,-0.5849 -0.455846,-0.29303 -0.454962,-0.37471 0.0073,-0.67168 0.400108,-0.25707 0.427851,-0.43646 0.115762,-0.74855 -0.225751,-0.22575 -0.320354,-0.64525 -0.210229,-0.93223 0.110125,-0.28698 -0.02134,-0.66208 -0.292151,-0.83356 -0.385901,-0.24435 -0.391877,-0.31294 -0.02763,-0.31717 0.279819,-0.003 0.388268,-0.25106 0.272548,-0.62277 -0.105708,-0.33954 -0.432337,-2.91923 -0.72584,-5.73263 -0.293504,-2.81341 -0.6164641,-5.7106 -0.7176891,-6.4382 l -0.184047,-1.32292 h 1.4384731 c 0.79116,0 1.737955,-0.16027 2.103989,-0.35617 0.600462,-0.32136 0.62225,-0.48516 0.2229,-1.67569 -0.243439,-0.72574 -0.416283,-1.67671 -0.384098,-2.11328 0.03218,-0.43656 -0.04347,-0.79375 -0.168129,-0.79375 -0.124656,0 -0.205576,-0.59531 -0.179821,-1.32291 0.02575,-0.72761 -0.04613,-1.48167 -0.159737,-1.6757 -0.11361,-0.19402 -0.227177,-1.24521 -0.252369,-2.33596 -0.02519,-1.09075 -0.118741,-2.12262 -0.207884,-2.29305 -0.19102,-0.36521 -0.05085,-9.60201 0.192072,-12.6571 0.09257,-1.16417 0.250825,-3.26715 0.351682,-4.6733 0.100857,-1.40614 0.30719,-2.75552 0.458517,-2.99861 0.151328,-0.24309 0.235065,-0.75948 0.186082,-1.14753 -0.04898,-0.38806 0.152635,-1.49931 0.448039,-2.46945 0.295403,-0.97014 0.538815,-2.1863 0.540915,-2.702577 0.0045,-1.113124 1.714986,-7.723465 2.131666,-8.238172 0.159162,-0.19661 0.479725,-1.149104 0.712361,-2.116658 0.232636,-0.967554 0.62044,-2.079008 0.861786,-2.469908 0.241346,-0.390907 0.549209,-1.213361 0.68414,-1.827698 0.1349312,-0.614337 0.4715032,-1.304684 0.7479362,-1.534101 0.276434,-0.22941 0.415812,-0.557547 0.309729,-0.729197 -0.106082,-0.17164 0.03508,-0.748967 0.313687,-1.282931 0.27861,-0.533977 0.717772,-1.447114 0.975916,-2.029191 0.258145,-0.582077 0.627713,-1.272781 0.821264,-1.534891 0.19355,-0.262097 0.384855,-0.701024 0.425122,-0.975374 0.04027,-0.274357 0.51932,-1.250524 1.064563,-2.169268 0.545242,-0.918734 1.001529,-1.749811 1.013972,-1.846818 0.04286,-0.3342 1.370576,-2.998923 1.58196,-3.174993 0.534339,-0.445073 1.781884,-2.470033 1.524712,-2.474847 -0.158733,-0.003 -0.11097,-0.122034 0.10614,-0.264583 0.217109,-0.14255 0.926771,-1.132307 1.577026,-2.19946 1.268846,-2.08234 1.259353,-2.068706 2.640382,-3.792361 0.505242,-0.63059 0.826689,-1.146528 0.714327,-1.146528 -0.217177,0 0.321704,-0.690558 2.161864,-2.770357 0.626088,-0.707623 1.142026,-1.381359 1.146528,-1.497192 0.0045,-0.115833 0.285998,-0.537285 0.625546,-0.93656 0.339549,-0.399275 1.014237,-1.212417 1.499306,-1.806982 1.545115,-1.893899 11.758032,-12.187162 13.35481,-13.459874 0.845214,-0.673678 1.971527,-1.621745 2.502918,-2.106814 0.531391,-0.48507 1.405255,-1.199445 1.941921,-1.5875 0.536666,-0.388056 1.156815,-0.864306 1.378111,-1.058334 1.650725,-1.447326 3.75977,-2.99861 4.076752,-2.99861 0.20988,0 0.381601,-0.133268 0.381601,-0.296152 0,-0.162883 0.357187,-0.465421 0.79375,-0.672305 0.436562,-0.206885 1.11125,-0.632464 1.499306,-0.945731 1.748734,-1.41171 9.784636,-6.49395 10.31875,-6.52601 0.242535,-0.01456 0.440972,-0.211677 0.440972,-0.438043 0,-0.226366 0.101143,-0.310431 0.224763,-0.186812 0.123619,0.12362 0.639557,-0.04879 1.146528,-0.383124 0.506971,-0.334338 1.715515,-1.004335 2.685654,-1.488883 0.970139,-0.484548 1.816806,-1.000058 1.881482,-1.145579 0.06468,-0.145521 0.402425,-0.264584 0.750554,-0.264584 0.348129,0 0.833772,-0.241961 1.079206,-0.537692 0.245435,-0.29573 0.515371,-0.468566 0.599857,-0.384079 0.08449,0.08449 1.334997,-0.461286 2.77891,-1.212828 1.443914,-0.751542 2.7023,-1.370642 2.796412,-1.375779 0.09411,-0.0051 0.745369,-0.249277 1.447236,-0.542536 0.701866,-0.293258 1.341207,-0.533197 1.420758,-0.533197 0.07955,0 0.73485,-0.263802 1.456223,-0.586228 2.897863,-1.295231 10.969312,-4.2969877 13.306031,-4.9484874 0.970139,-0.2704837 2.002014,-0.5642637 2.293056,-0.6528427 0.865146,-0.2633087 7.173396,-1.9051058 7.937506,-2.0658318 0.38806,-0.08162 1.97556,-0.4712287 3.52778,-0.8657874 1.55222,-0.3945597 3.60495,-0.8143757 4.56161,-0.9329234 0.95666,-0.118548 1.85234,-0.285351 1.99039,-0.370672 0.13806,-0.08532 0.78408,-0.2268167 1.43562,-0.3144337 0.65153,-0.08762 1.74023,-0.250588 2.41932,-0.3621577 0.6791,-0.111569 1.71098,-0.27037 2.29306,-0.352889 7.93197,-1.1244814 7.58437,-1.0866824 13.75834,-1.4961481 5.44041,-0.3608157 19.58741,-0.3616667 25.04722,-0.0015 4.98135,0.3285977 5.74398,0.4037287 9.70139,0.9557344 1.64924,0.230047 3.44073,0.4760067 3.98109,0.5465787 0.54036,0.07057 1.65161,0.234444 2.46944,0.364162 0.81784,0.1297177 1.80448,0.2854567 2.19253,0.3460857 2.74765,0.4292877 8.62839,1.7260441 13.40556,2.9560452 3.10444,0.7993177 5.80319,1.4925051 5.99722,1.5404181 0.19403,0.04791 0.51153,0.183044 0.70556,0.300292 0.19402,0.117247 0.9084,0.3191117 1.5875,0.4485877 0.67909,0.129475 2.74284,0.7991654 4.58611,1.4881994 1.84326,0.689034 4.22451,1.578782 5.29167,1.977216 1.06715,0.398434 2.60625,1.017412 3.42022,1.375507 0.81398,0.358095 1.56333,0.651082 1.66524,0.651082 0.56481,0 10.92999,5.030083 14.40685,6.991451 0.92236,0.520327 2.66862,1.483129 3.88055,2.139559 1.21194,0.65643 3.04698,1.76768 4.07788,2.469445 1.03089,0.701764 2.47959,1.672809 3.21933,2.157879 0.73973,0.485069 1.80128,1.197055 2.35898,1.58219 1.39948,0.966447 8.02918,5.919543 8.24595,6.160605 0.097,0.107889 1.52576,1.334454 3.175,2.725701 1.64924,1.391247 5.14332,4.724669 7.76464,7.407605 5.41898,5.546371 6.33382,6.565999 8.69565,9.69157 0.9318,1.233129 1.81866,2.400802 1.97079,2.59483 4.57123,5.830305 9.80386,14.809134 12.95215,22.224952 0.65897,1.552211 1.29501,2.980952 1.41343,3.174982 0.11841,0.194017 0.67299,1.781508 1.23241,3.527749 0.55941,1.746251 1.22262,3.663929 1.47378,4.261536 0.43542,1.035974 1.35086,4.698483 2.4178,9.673122 0.48521,2.26231 0.74058,3.89737 1.09942,7.0393 0.10074,0.88207 0.31308,2.55625 0.47187,3.72042 0.31293,2.29436 0.21733,15.93725 -0.12978,18.52083 -2.8445,21.17183 -9.15714,36.20882 -22.71846,54.11647 -4.38606,5.79175 -13.00279,14.5552 -18.93676,19.25918 -1.55222,1.23047 -2.98097,2.41546 -3.175,2.63329 -0.50018,0.56155 -6.36509,4.77718 -6.64616,4.77718 -0.12815,0 -0.51082,0.25009 -0.85037,0.55575 -3.13787,2.82473 -21.81797,12.98411 -26.54653,14.43763 -0.48507,0.14911 -1.19508,0.48784 -1.5778,0.75275 -0.38272,0.26491 -0.94446,0.48165 -1.24832,0.48165 -0.30386,0 -1.17052,0.3151 -1.92591,0.70022 -0.7554,0.38512 -1.44905,0.62462 -1.54144,0.53223 -0.0924,-0.0924 -0.34135,-0.0313 -0.55323,0.13574 -0.21188,0.16706 -1.02024,0.49425 -1.79635,0.72708 -0.77611,0.23283 -1.72861,0.55839 -2.11667,0.72347 -1.39501,0.59342 -6.03586,2.04039 -7.9375,2.47483 -1.06715,0.2438 -2.09903,0.55747 -2.29306,0.69704 -0.19402,0.13958 -1.38465,0.45992 -2.64583,0.71188 -1.26118,0.25195 -2.55436,0.58997 -2.87374,0.75114 -0.31937,0.16117 -1.27187,0.3767 -2.11666,0.47896 -0.84479,0.10225 -2.64724,0.43229 -4.00543,0.73341 -2.79097,0.61878 -10.56465,1.93397 -12.7,2.14865 -0.77612,0.078 -2.44299,0.22521 -3.70417,0.32708 -1.26118,0.10187 -4.11868,0.36575 -6.35,0.58642 -5.97516,0.59091 -26.043,0.42988 -27.09028,-0.21738 -0.20698,-0.12792 -1.45916,-0.29963 -2.78262,-0.38158 -5.0299,-0.31145 -7.45628,-0.60341 -11.75489,-1.41444 -1.64923,-0.31116 -3.37904,-0.56038 -3.84402,-0.55382 -0.46497,0.007 -1.05333,-0.16063 -1.30746,-0.37154 -0.25413,-0.2109 -0.6429,-0.2717 -0.86393,-0.1351 -0.22102,0.1366 -0.74392,0.0833 -1.16198,-0.11857 -1.03383,-0.49908 -2.7504,-0.90249 -3.46288,-0.81381 -0.32236,0.0401 -0.68464,-0.0864 -0.80505,-0.28129 -0.12042,-0.19484 -0.454,-0.26405 -0.7413,-0.1538 -0.2873,0.11024 -0.75645,0.006 -1.04255,-0.23127 -0.2861,-0.23744 -0.76032,-0.33956 -1.05384,-0.22693 -0.29351,0.11264 -0.53366,0.051 -0.53366,-0.13692 0,-0.18794 -0.3875,-0.3417 -0.86112,-0.3417 -0.47362,0 -0.95495,-0.15182 -1.06963,-0.33737 -0.11468,-0.18556 -0.44357,-0.24717 -0.73087,-0.13692 -0.2873,0.11024 -0.75151,0.0103 -1.03158,-0.22217 -0.28007,-0.23244 -0.66396,-0.32699 -0.85308,-0.2101 -0.18912,0.11688 -0.44357,0.0512 -0.56544,-0.14602 -0.12187,-0.19719 -0.52972,-0.35853 -0.906326,-0.35853 -0.376605,0 -0.684736,-0.14889 -0.684736,-0.33086 0,-0.18197 -0.277812,-0.32928 -0.617361,-0.32736 -0.565686,0.003 -1.777979,-0.2315 -2.204861,-0.42686 -0.09701,-0.0444 -0.335139,-0.11116 -0.529167,-0.14837 -0.194028,-0.0372 -0.799675,-0.25115 -1.345882,-0.47543 -0.546208,-0.22429 -1.211526,-0.40779 -1.478486,-0.40779 -0.26696,0 -0.579209,-0.15182 -0.693888,-0.33737 -0.114678,-0.18556 -0.441547,-0.24795 -0.726375,-0.13865 -0.284828,0.1093 -0.517869,0.006 -0.517869,-0.22954 0,-0.23574 -0.237881,-0.33698 -0.529167,-0.2252 -0.291042,0.11168 -0.529167,0.0665 -0.529167,-0.1004 0,-0.31362 -1.705217,-0.9035 -2.245903,-0.77692 -0.168095,0.0393 -0.697806,-0.18541 -1.177137,-0.49948 -0.47933,-0.31407 -0.95401,-0.48854 -1.054844,-0.38771 -0.100833,0.10084 -0.507976,-0.11911 -0.904762,-0.48877 -0.396785,-0.36967 -0.841926,-0.59765 -0.989201,-0.50663 -0.147275,0.091 -1.115421,-0.26659 -2.151436,-0.7947 -1.036014,-0.5281 -2.002725,-0.9851 -2.148245,-1.01554 -0.145521,-0.0304 -0.383646,-0.094 -0.529167,-0.14121 -0.145521,-0.0472 -0.383646,-0.0671 -0.529167,-0.0441 -0.145521,0.023 -0.264583,-0.13396 -0.264583,-0.34875 0,-0.21478 -0.238125,-0.29914 -0.529167,-0.18746 -0.291042,0.11169 -0.529167,0.0835 -0.529167,-0.0626 0,-0.14611 -0.47625,-0.54697 -1.058333,-0.89082 -0.582083,-0.34384 -1.058333,-0.51222 -1.058333,-0.37416 0,0.13805 -0.277813,0.0217 -0.617362,-0.25858 -0.757884,-0.62558 -3.341514,-1.86711 -3.704167,-1.77999 -0.14552,0.035 -0.264583,-0.0785 -0.264583,-0.25219 0,-0.17366 -1.309688,-0.98327 -2.910417,-1.79914 -3.972053,-2.02449 -5.098225,-2.65026 -5.764029,-3.20283 -0.312925,-0.2597 -0.826403,-0.50997 -1.141063,-0.55616 -0.314659,-0.0462 -0.752708,-0.33095 -0.973441,-0.63282 -0.220733,-0.30187 -0.557665,-0.54886 -0.748738,-0.54886 -0.191073,0 -0.639805,-0.3231 -0.997184,-0.71799 -0.357378,-0.3949 -0.858232,-0.63801 -1.113009,-0.54024 -0.254777,0.0978 -0.463231,-0.0554 -0.463231,-0.34034 0,-0.28495 -0.221141,-0.51809 -0.491424,-0.51809 -0.270283,0 -0.586661,-0.24819 -0.703063,-0.55153 -0.116403,-0.30334 -0.372633,-0.45203 -0.569402,-0.33042 -0.196768,0.12161 -0.452999,-0.0271 -0.569402,-0.33042 -0.116402,-0.30334 -0.415796,-0.55152 -0.66532,-0.55152 -0.249524,0 -0.548919,-0.24819 -0.665321,-0.55153 -0.116402,-0.30334 -0.354877,-0.463 -0.529944,-0.3548 -0.175067,0.10819 -0.409896,-0.042 -0.521842,-0.33369 -0.111946,-0.29173 -0.330231,-0.48926 -0.485078,-0.43895 -0.292105,0.0949 -1.139402,-0.53137 -2.118902,-1.56616 -0.311998,-0.3296 -0.708387,-0.51207 -0.880864,-0.40547 -0.172477,0.10659 -0.4008,-0.13966 -0.507384,-0.54724 -0.106584,-0.40758 -0.378118,-0.74105 -0.603409,-0.74105 -0.225291,0 -0.687256,-0.32426 -1.026588,-0.72057 -0.339333,-0.39631 -0.771786,-0.62488 -0.961007,-0.50794 -0.189221,0.11695 -0.490312,-0.1721 -0.66909,-0.64232 -0.178778,-0.47022 -0.654731,-0.94116 -1.057672,-1.04653 -0.402942,-0.10537 -0.732622,-0.44458 -0.732622,-0.75378 0,-0.53078 -0.439068,-0.7351 -1.234722,-0.57457 -0.194028,0.0391 -0.244389,-0.0372 -0.111914,-0.16969 0.292687,-0.29269 -1.679471,-2.28182 -2.2815,-2.30114 -0.235845,-0.008 -0.952996,-0.72621 -1.59367,-1.59699 -0.710063,-0.96509 -1.329873,-1.48857 -1.5875,-1.34079 -0.232452,0.13334 -0.336743,0.14432 -0.231759,0.0244 0.104983,-0.11993 -0.887204,-1.36674 -2.204862,-2.77071 -1.317657,-1.40396 -2.395741,-2.68905 -2.395741,-2.85575 0,-0.16669 -0.9525,-1.18492 -2.116666,-2.26274 -1.164167,-1.07781 -2.116667,-2.24716 -2.116667,-2.59855 0,-0.3514 -0.555625,-1.16298 -1.234723,-1.80352 -0.679097,-0.64054 -1.234723,-1.37591 -1.234723,-1.63415 0,-0.25824 -0.595313,-1.03549 -1.322917,-1.72722 -0.727604,-0.69173 -1.126297,-1.15164 -0.885985,-1.02202 0.285073,0.15376 0.367551,0.0549 0.237307,-0.28455 -0.109794,-0.28611 -0.425475,-0.60688 -0.701515,-0.7128 -0.27604,-0.10593 -0.50189,-0.51508 -0.50189,-0.90922 0,-0.40182 -0.23246,-0.71663 -0.529167,-0.71663 -0.291042,0 -0.529167,-0.29806 -0.529167,-0.66236 0,-0.3643 -0.238125,-0.85999 -0.529166,-1.10153 -0.291042,-0.24154 -0.529167,-0.64087 -0.529167,-0.8874 0,-0.24652 -0.248187,-0.54346 -0.551527,-0.65986 -0.303339,-0.11641 -0.45875,-0.36176 -0.345358,-0.54523 0.113393,-0.18348 -0.07498,-0.49093 -0.418612,-0.68324 -0.34363,-0.1923 -0.573934,-0.40049 -0.511787,-0.46265 0.199014,-0.19904 -0.584688,-1.97613 -0.978933,-2.21978 -0.209161,-0.12927 -0.288959,-0.38282 -0.177329,-0.56344 0.11163,-0.18062 0.05336,-0.3284 -0.12949,-0.3284 -0.322545,0 -0.886078,-1.30763 -0.802401,-1.8619 0.02278,-0.15092 -0.188148,-0.36249 -0.468738,-0.47017 -0.28059,-0.10767 -0.423828,-0.42075 -0.318307,-0.69574 0.105521,-0.27498 0.0068,-0.49997 -0.219484,-0.49997 -0.226238,0 -0.324345,-0.14076 -0.218016,-0.3128 0.106328,-0.17205 -0.04305,-0.50898 -0.331958,-0.74875 -0.288906,-0.23977 -0.525283,-0.71457 -0.525283,-1.05511 0,-0.34054 -0.241961,-0.81998 -0.537692,-1.06541 -0.29573,-0.24544 -0.453924,-0.53002 -0.35154,-0.6324 0.102383,-0.10238 -0.05619,-0.55601 -0.352385,-1.00806 -0.296196,-0.45205 -0.442555,-0.82191 -0.325243,-0.82191 0.117311,0 -0.131356,-0.55766 -0.552594,-1.23923 -0.421238,-0.68158 -0.8049912,-1.59439 -0.8527852,-2.02848 -0.114102,-1.03631 -1.270477,-4.56304 -1.65749,-5.05503 -0.166672,-0.21188 -0.198583,-0.48969 -0.07091,-0.61736 0.127668,-0.12767 0.0519,-0.23212 -0.168378,-0.23212 -0.220276,0 -0.313389,-0.22702 -0.206917,-0.50448 0.106472,-0.27746 -0.08259,-1.08647 -0.420141,-1.79781 -0.337549,-0.71133 -0.643899,-1.63525 -0.680778,-2.05316 -0.03688,-0.41791 -0.170298,-1.03765 -0.296487,-1.37719 -0.126189,-0.33955 -0.333207,-0.89518 -0.460041,-1.23473 -0.126833,-0.33954 -0.198612,-0.88111 -0.159508,-1.20347 0.0391,-0.32236 -0.08035,-0.6797 -0.265442,-0.7941 -0.185096,-0.11439 -0.258238,-0.50742 -0.162536,-0.87338 0.157688,-0.603 -0.434012,-1.3744 -0.785002,-1.02341 -0.18247,0.18247 1.103722,8.88439 1.645031,11.12969 0.221743,0.91977 1.250874,4.63658 2.286958,8.25958 2.5376312,8.87363 5.6969892,15.75799 10.6276832,23.15809 4.41216,6.62188 12.541777,17.4554 13.637526,18.17337 0.434594,0.28475 2.74259,2.36358 5.12888,4.61962 8.508588,8.04415 18.462328,15.2566 28.425633,20.59713 10.044491,5.38405 26.0981,11.88058 35.454173,14.3475 14.10505,3.71908 14.17399,3.73319 23.28334,4.76441 15.35104,1.73781 32.17012,1.78945 47.09584,0.14462 2.71639,-0.29935 5.65326,-0.60344 6.52639,-0.67576 2.35497,-0.19504 4.1627,-0.475 6.52639,-1.01073 8.45093,-1.91539 10.45569,-2.38936 12.17083,-2.8775 1.06715,-0.30372 2.09903,-0.59064 2.29306,-0.63759 1.1008,-0.26637 7.97674,-2.52534 9.16079,-3.00962 0.76983,-0.31486 1.4842,-0.58351 1.5875,-0.59701 0.91248,-0.11919 3.20059,-0.94768 3.36874,-1.21977 0.11666,-0.18875 0.53926,-0.34319 0.93911,-0.34319 0.39985,0 2.25579,-0.73875 4.12432,-1.64167 5.35816,-2.5892 7.85452,-3.682 9.65912,-4.22835 0.92164,-0.27902 1.6757,-0.63583 1.6757,-0.79291 0,-0.15708 0.59531,-0.54877 1.32291,-0.87041 0.72761,-0.32165 2.59292,-1.30338 4.14514,-2.18162 1.55223,-0.87824 3.10004,-1.68955 3.43959,-1.8029 0.33955,-0.11335 0.61736,-0.34633 0.61736,-0.51773 0,-0.1714 0.1602,-0.31163 0.356,-0.31163 0.64832,0 8.77111,-5.47609 9.26652,-6.24716 0.15066,-0.23447 0.48698,-0.34456 0.74739,-0.24463 0.28082,0.10776 0.55555,-0.13217 0.67518,-0.58964 0.13764,-0.52633 0.38006,-0.70288 0.76321,-0.55585 0.38426,0.14745 0.66655,-0.0608 0.89426,-0.65974 0.29647,-0.77976 0.7044,-1.03476 1.47733,-0.92345 0.13484,0.0194 0.58222,-0.43804 0.99416,-1.01656 0.41195,-0.57852 0.96479,-1.05186 1.22853,-1.05186 0.26375,0 0.82062,-0.43657 1.23748,-0.97014 0.41687,-0.53358 1.28952,-1.29422 1.93924,-1.69031 1.62496,-0.99064 8.2803,-7.28953 8.28574,-7.84196 0.002,-0.24653 0.71878,-0.95178 1.59191,-1.56722 0.87312,-0.61543 1.58919,-1.28685 1.59126,-1.49203 0.002,-0.20519 0.74893,-1.16682 1.6597,-2.13695 0.91077,-0.97014 1.66314,-1.89575 1.67193,-2.05691 0.009,-0.16117 0.29381,-0.49617 0.63336,-0.74445 0.33954,-0.24829 0.61736,-0.6059 0.61736,-0.79471 0,-0.18881 0.47184,-0.80631 1.04853,-1.37222 0.5767,-0.56592 1.05295,-1.22737 1.05833,-1.46991 0.005,-0.24253 0.16855,-0.44097 0.36258,-0.44097 0.19403,0 0.35278,-0.21495 0.35278,-0.47765 0,-0.26271 0.35719,-0.87232 0.79375,-1.35468 1.20336,-1.32961 2.38125,-3.03372 2.38125,-3.44505 0,-0.20189 0.12912,-0.36707 0.28693,-0.36707 0.15782,0 0.50794,-0.56326 0.77807,-1.2517 0.27012,-0.68843 0.69487,-1.4208 0.9439,-1.62747 0.24903,-0.20667 0.36509,-0.51765 0.25791,-0.69107 -0.10717,-0.17341 0.0533,-0.41053 0.35666,-0.52694 0.30334,-0.1164 0.55153,-0.4804 0.55153,-0.80889 0,-0.32849 0.18889,-0.78615 0.41976,-1.01702 0.23087,-0.23087 0.44975,-0.62409 0.48641,-0.87382 0.0366,-0.24973 0.48276,-1.06724 0.99135,-1.81669 0.50858,-0.74945 0.9247,-1.6643 0.9247,-2.03301 0,-0.87012 1.31095,-3.46292 2.15996,-4.27199 0.36425,-0.34711 0.66324,-0.98211 0.66444,-1.41111 10e-4,-0.42901 0.23932,-1.23472 0.52917,-1.79047 0.28984,-0.55576 0.52699,-1.30045 0.52699,-1.65488 0,-0.35442 0.16957,-0.74921 0.37683,-0.8773 0.20725,-0.12809 0.29665,-0.44182 0.19866,-0.69718 -0.098,-0.25536 0.0407,-0.54828 0.30823,-0.65093 0.26752,-0.10266 0.48497,-0.47299 0.48323,-0.82295 -0.007,-1.35912 0.33412,-2.73203 0.70941,-2.85712 0.2162,-0.0721 0.39308,-0.74725 0.39308,-1.50042 0,-0.75316 0.22165,-2.04962 0.49255,-2.88101 0.41654,-1.27838 0.66105,-2.32145 1.09861,-4.68664 0.0359,-0.19403 0.10124,-0.43215 0.14521,-0.52916 0.21213,-0.46802 0.83059,-4.97066 0.87221,-6.35001 0.0205,-0.67909 0.19601,-1.35135 0.39003,-1.4939 0.61214,-0.44973 2.64584,-0.30653 2.64584,0.1863 0,0.55666 -1.33263,13.34221 -1.57031,15.06594 -0.0936,0.6791 -0.26272,2.18722 -0.37574,3.35139 -0.38969,4.01422 -2.1321,12.34249 -3.3582,16.05139 -5.52757,16.72064 -13.45168,29.60351 -26.22406,42.63453 -15.43286,15.7454 -35.86946,28.08632 -59.31198,35.81636 -6.27165,2.06805 -7.09063,2.32573 -7.9375,2.49747 -0.48507,0.0984 -1.75507,0.4237 -2.82222,0.72296 -8.61585,2.41609 -24.96566,5.0493 -35.45417,5.71005 -4.9494,0.3118 -19.02706,0.54614 -19.25058,0.32046 z m 8.84364,-26.60501 c 0,-0.35161 0.3481,-1.3438 0.77356,-2.20486 0.42546,-0.86107 0.83092,-1.94632 0.90103,-2.41169 0.0701,-0.46536 0.60276,-1.53693 1.18367,-2.38125 0.58091,-0.84432 0.92951,-1.53996 0.77466,-1.54586 -0.15484,-0.006 -0.004,-0.17254 0.33583,-0.37031 0.33955,-0.19777 0.61737,-0.57283 0.61737,-0.83347 0,-0.26064 0.23544,-0.56424 0.52321,-0.67467 0.29773,-0.11425 0.4335,-0.4346 0.31504,-0.7433 -0.13491,-0.35158 -0.006,-0.54252 0.36746,-0.54252 0.3166,0 0.71632,-0.37002 0.88826,-0.82227 0.40579,-1.0673 2.92313,-3.60374 4.26558,-4.29795 0.57683,-0.29829 1.04878,-0.70095 1.04878,-0.8948 0,-0.19384 0.39687,-0.50334 0.88194,-0.68776 0.48507,-0.18442 0.88195,-0.52445 0.88195,-0.75562 0,-0.23117 0.10618,-0.31413 0.23595,-0.18435 0.12978,0.12977 0.54332,-0.0422 0.91899,-0.38218 0.37566,-0.33997 0.70604,-0.56376 0.73418,-0.49731 0.11297,0.26679 1.99143,-0.78797 1.99143,-1.11818 0,-0.19523 0.0995,-0.25545 0.22112,-0.13384 0.12161,0.12162 0.71693,-0.0464 1.32292,-0.37346 0.60599,-0.32702 1.70878,-0.75725 2.45065,-0.95607 0.74187,-0.19882 1.29749,-0.51916 1.23472,-0.71187 -0.0628,-0.19271 -0.31256,-0.30482 -0.5551,-0.24912 -0.24253,0.0557 -0.44097,-0.0814 -0.44097,-0.30472 0,-0.2233 -0.23813,-0.31461 -0.52917,-0.20293 -0.29104,0.11168 -0.52917,0.0812 -0.52917,-0.0678 0,-0.21369 -1.93991,-1.10847 -2.82222,-1.30174 -0.74226,-0.16259 -4.46587,-2.16408 -4.68363,-2.51752 -0.15066,-0.24451 -0.50784,-0.3548 -0.79375,-0.24508 -0.30772,0.11808 -0.51984,-0.005 -0.51984,-0.30209 0,-0.27587 -0.56052,-0.76887 -1.24559,-1.09556 -0.68508,-0.32669 -1.35095,-0.86853 -1.47972,-1.20409 -0.30583,-0.79698 -1.84239,-2.21316 -2.40129,-2.21316 -0.2406,0 -0.70111,-0.55562 -1.02337,-1.23472 -0.32225,-0.6791 -0.82596,-1.23472 -1.11935,-1.23472 -0.29339,0 -0.44323,-0.14595 -0.33298,-0.32434 0.11025,-0.17838 -0.0391,-0.56392 -0.33196,-0.85674 -0.29282,-0.29283 -0.53241,-0.63737 -0.53241,-0.76565 0,-0.12828 -0.3162,-0.4968 -0.70268,-0.81895 -0.38647,-0.32214 -0.75684,-0.96534 -0.82305,-1.42933 -0.0662,-0.46399 -0.39418,-1.04382 -0.72883,-1.28853 -0.33466,-0.2447 -0.66772,-0.89695 -0.74014,-1.44944 -0.0724,-0.55249 -0.16247,-1.04421 -0.20009,-1.09272 -0.0376,-0.0485 -0.0883,-0.239 -0.1125,-0.42333 -0.0242,-0.18433 -0.24253,-0.53358 -0.48507,-0.77611 -0.35278,-0.35278 -0.44097,-0.30145 -0.44097,0.25664 0,0.38369 -0.20429,1.01075 -0.45397,1.39347 -0.24969,0.38273 -0.82664,1.6235 -1.28211,2.75729 -0.45548,1.13379 -1.20369,2.46666 -1.6627,2.96193 -0.45901,0.49528 -0.83456,1.11545 -0.83456,1.37816 0,0.2627 -0.15729,0.47765 -0.34953,0.47765 -0.19224,0 -0.70818,0.55366 -1.14653,1.23035 -0.43835,0.6767 -0.95575,1.23662 -1.14977,1.24427 -0.49226,0.0194 -2.99861,2.39331 -2.99861,2.84014 0,0.20151 -0.47625,0.53241 -1.05834,0.73532 -0.58208,0.20292 -1.06051,0.55185 -1.06318,0.7754 -0.005,0.37373 -6.72654,3.76465 -8.05838,4.06501 -0.31891,0.0719 -0.97671,0.29674 -1.46178,0.4996 -0.48507,0.20286 -1.001,0.38215 -1.14652,0.3984 -0.14553,0.0163 -0.30111,0.18831 -0.34575,0.38234 -0.0446,0.19403 0.78879,0.59622 1.85208,0.89375 1.06329,0.29753 2.56825,0.93194 3.34436,1.4098 0.77611,0.47785 1.41112,0.79066 1.41112,0.69512 0,-0.0955 0.49417,0.17818 1.09815,0.60825 0.60399,0.43008 1.18644,0.69368 1.29433,0.58578 0.1079,-0.1079 0.37338,0.13491 0.58996,0.53959 0.21657,0.40467 0.60932,0.73577 0.87278,0.73577 0.26346,0 0.57671,0.25459 0.69612,0.56577 0.12789,0.33329 0.44085,0.47991 0.76162,0.35682 0.3116,-0.11958 0.45232,-0.0598 0.32898,0.13978 -0.11854,0.19181 -0.0411,0.34874 0.17204,0.34874 0.51388,0 2.87785,2.44224 3.49014,3.6057 0.26658,0.50654 0.78252,0.99887 1.14653,1.09406 0.36402,0.0952 0.66185,0.43299 0.66185,0.75066 0,0.31768 0.38838,0.99645 0.86307,1.50837 0.47469,0.51193 0.79466,1.04146 0.71106,1.17673 -0.0836,0.13527 0.2311,0.62905 0.69934,1.09729 0.46824,0.46824 0.9609,1.32085 1.0948,1.89468 0.13389,0.57384 0.46287,1.39523 0.73106,1.82532 0.26819,0.43008 0.5467,1.06508 0.61891,1.41111 0.46115,2.20971 0.69772,2.92219 0.9703,2.92219 0.16978,0 0.30868,-0.28768 0.30868,-0.63929 z m 111.32525,-46.48366 c 3.66356,-1.79242 5.00724,-5.69152 3.31609,-9.6227 -1.57819,-3.66861 -4.51955,-5.31154 -10.74827,-6.00356 -2.92326,-0.32477 -5.10579,-0.96433 -5.11253,-1.49815 -0.002,-0.12 1.17247,-0.29361 2.60884,-0.38579 2.32506,-0.14921 2.80686,-0.31093 4.39121,-1.47396 2.30711,-1.69357 3.30522,-4.037 2.77609,-6.5179 -0.88023,-4.12716 -4.48787,-7.11098 -8.94041,-7.3945 -2.69733,-0.17175 -4.41373,0.37052 -6.15658,1.94508 -1.6933,1.52979 -2.08058,2.71178 -2.14956,6.56041 -0.0303,1.69132 -0.14842,3.07856 -0.26247,3.08276 -0.5559,0.0204 -4.3942,-4.65043 -5.2244,-6.35763 -1.01197,-2.081 -1.36675,-5.09212 -0.70662,-5.99722 0.21227,-0.29105 -2.01901,1.84448 -4.95839,4.7456 -2.93939,2.90113 -5.30221,5.31691 -5.25071,5.36841 0.0515,0.0515 0.69274,-0.0902 1.42498,-0.31498 2.66626,-0.8183 8.0437,0.72805 11.81554,3.3977 l 1.5411,1.09077 -1.01194,0.22284 c -0.55656,0.12257 -1.90478,0.24163 -2.99605,0.26458 -2.80652,0.059 -4.84363,0.8719 -6.4191,2.56138 -1.60595,1.72216 -2.05751,2.78133 -2.06038,4.83286 -0.004,2.91531 1.70828,5.62218 4.74204,7.49615 1.49404,0.92288 2.31258,1.16807 4.34325,1.30101 2.92658,0.19158 4.49093,-0.36633 6.58949,-2.35008 1.57818,-1.49183 2.09813,-3.12896 1.98499,-6.2499 -0.045,-1.24188 0.003,-2.34261 0.10623,-2.44606 0.35249,-0.35249 2.052,3.61756 2.4346,5.68722 0.46888,2.53642 1.30965,4.23518 2.8465,5.75132 3.16099,3.11839 7.54742,4.03093 11.07646,2.30434 z M 44.947202,178.93916 c 9.632395,-0.0403 11.543959,-0.13544 13.027168,-0.64802 0.956053,-0.33041 2.027615,-0.86259 2.38125,-1.18262 0.353635,-0.32004 0.648021,-0.43822 0.654192,-0.26263 0.0062,0.1756 0.204608,0.0674 0.440972,-0.24047 0.236364,-0.30786 0.800536,-0.75728 1.253717,-0.99872 0.45318,-0.24145 0.747653,-0.5153 0.654384,-0.60857 -0.09327,-0.0933 0.210635,-0.57984 0.675342,-1.08126 0.606164,-0.65407 0.862693,-1.37065 0.907815,-2.53587 0.116841,-3.01734 -0.08494,-4.19729 -0.794572,-4.6464 -0.276674,-0.1751 -0.354281,-0.3208 -0.172459,-0.32377 0.181821,-0.003 -0.126079,-0.48205 -0.684222,-1.06463 -1.090969,-1.13872 -3.229477,-2.28796 -4.938031,-2.6537 -2.066332,-0.44233 -2.091007,-0.54006 -0.357915,-1.41746 0.943287,-0.47755 1.978215,-1.10642 2.299842,-1.39749 0.321626,-0.29107 0.690955,-0.42303 0.82073,-0.29326 0.129775,0.12978 0.235955,0.068 0.235955,-0.13737 0,-0.31898 1.024454,-0.76916 2.293056,-1.00767 0.194027,-0.0365 0.511527,-0.10881 0.705555,-0.16075 0.194028,-0.0519 0.511528,-0.13131 0.705556,-0.17639 0.194028,-0.0451 0.432153,-0.1135 0.529167,-0.15205 0.09701,-0.0385 0.493888,-0.13214 0.881944,-0.20798 0.388056,-0.0758 1.203262,-0.2367 1.81157,-0.35748 0.608309,-0.12077 1.441746,-0.0399 1.852084,0.1797 0.410338,0.21961 0.746069,0.27677 0.746069,0.12702 0,-0.30896 -9.231475,-9.63033 -9.537456,-9.63033 -0.109256,0 -0.135891,0.53755 -0.05919,1.19455 0.0767,0.65701 -0.06828,1.56982 -0.322175,2.02848 -0.253899,0.45865 -0.426277,0.95786 -0.383064,1.10936 0.04321,0.15149 -0.23507,0.6121 -0.618408,1.02356 -0.383338,0.41147 -0.626854,0.86158 -0.541147,1.00026 0.151791,0.2456 -1.39431,2.14218 -3.531618,4.33219 -0.582084,0.59643 -1.009688,1.24054 -0.950234,1.43134 0.06084,0.19524 -0.09339,0.17969 -0.352777,-0.0356 -0.253483,-0.21037 -0.441564,-0.91193 -0.417957,-1.55902 0.02361,-0.64709 -0.07603,-1.33528 -0.221407,-1.52931 -0.145381,-0.19403 -0.373127,-0.70775 -0.506102,-1.1416 -0.266656,-0.87 -2.335573,-3.11829 -2.754995,-2.99385 -0.145521,0.0432 -0.264584,-0.0802 -0.264584,-0.27427 0,-0.19403 -0.248561,-0.35278 -0.552359,-0.35278 -0.303797,0 -0.888536,-0.17992 -1.299419,-0.39982 -0.911442,-0.48778 -3.647981,-0.50559 -4.851,-0.0316 -3.082393,1.21457 -3.488403,1.51184 -5.227764,3.82767 -1.001555,1.33349 -1.822536,2.7045 -1.824401,3.04668 -0.0019,0.34218 -0.159827,0.89781 -0.351028,1.23472 -0.512735,0.9035 -1.823165,8.01857 -1.964564,10.66674 -0.06734,1.26119 -0.37908,3.16619 -0.692755,4.23334 -0.313674,1.06715 -0.657024,2.37684 -0.762998,2.91042 -0.105975,0.53357 -0.333414,0.97013 -0.50542,0.97013 -0.172005,0 -0.312737,0.16945 -0.312737,0.37655 0,0.23225 0.304189,0.27705 0.79375,0.11691 0.436562,-0.14281 5.87375,-0.28094 12.082639,-0.30695 z M 157.83612,177.3183 c 6.18349,-0.38637 13.66978,-1.37887 18.85352,-2.49952 3.86787,-0.83618 10.61868,-2.72321 11.13259,-3.11184 0.19403,-0.14674 2.41653,-1.03727 4.93889,-1.97898 5.79147,-2.1622 13.95637,-6.29297 17.63212,-8.9204 1.55595,-1.1122 3.06712,-2.11794 3.35816,-2.235 0.69177,-0.27822 7.19796,-5.76198 10.34684,-8.72086 1.35787,-1.27593 3.62937,-3.71007 5.04778,-5.40919 21.93428,-26.27519 20.03361,-59.87734 -4.78444,-84.584405 -4.82976,-4.808177 -7.71138,-7.177861 -12.72685,-10.465858 -6.38624,-4.186633 -9.44412,-5.848561 -16.75694,-9.107232 -3.06885,-1.36751 -8.32383,-3.251082 -11.46528,-4.109564 -0.6791,-0.185581 -1.79035,-0.496455 -2.46945,-0.690832 -1.11466,-0.319049 -3.11622,-0.776145 -7.76111,-1.772409 -3.8932,-0.835038 -8.81027,-1.433809 -15.43403,-1.879466 -6.02947,-0.405672 -8.25803,-0.405672 -14.2875,0 -6.67967,0.449419 -11.42394,1.029805 -15.61043,1.909691 -0.97014,0.203897 -2.63701,0.538257 -3.70416,0.743022 -6.15323,1.180678 -17.32995,5.242772 -24.849873,9.031488 -4.254848,2.143697 -11.548101,6.812526 -15.297315,9.792689 -4.567981,3.630979 -12.201173,11.445842 -14.533383,14.879278 -4.280102,6.301075 -5.069299,7.698146 -7.953182,14.07912 -0.775006,1.714801 -2.544183,7.291748 -2.79778,8.819389 -0.128838,0.776107 -0.468302,2.111878 -0.754364,2.968375 -0.286062,0.856504 -0.438162,1.770828 -0.338,2.031848 0.100162,0.261017 0.02292,1.306481 -0.171643,2.323268 -0.37735,1.971988 -0.485786,8.566678 -0.184117,11.197298 0.328428,2.86396 0.676033,4.98029 1.216812,7.40833 0.326489,1.4659 0.526912,2.21827 1.433129,5.37986 1.362816,4.75456 4.941923,11.8939 8.223758,16.40417 0.741204,1.01865 1.252089,1.85208 1.135301,1.85208 -0.116789,0 1.214183,1.63866 2.957714,3.64146 3.662473,4.20709 10.589157,10.9222 12.814921,12.42349 0.839946,0.56655 2.691108,1.87758 4.113693,2.9134 5.111387,3.72172 12.029979,7.31956 19.462099,10.12079 2.42535,0.91413 4.56848,1.7833 4.7625,1.93148 0.19403,0.14818 2.41653,0.84347 4.93889,1.54509 7.99708,2.22446 15.95246,3.50227 25.62807,4.11646 3.14833,0.19985 5.81262,0.45175 5.92064,0.55977 0.10802,0.10802 0.67376,0.0996 1.25719,-0.0186 0.58343,-0.11826 3.60078,-0.37372 6.70523,-0.56769 z m -19.80811,-3.3249 c -6.62241,-0.75472 -13.67412,-2.14743 -20.0558,-3.961 -7.26701,-2.06518 -19.806593,-7.85576 -26.12776,-12.06539 -9.596967,-6.39118 -19.042807,-16.2699 -23.808017,-24.89908 -3.003006,-5.43806 -4.535917,-9.00585 -5.683941,-13.22917 -1.164166,-4.28269 -1.109383,-4.02696 -1.815252,-8.47382 -1.468434,-9.25089 0.07577,-20.601566 4.024943,-29.585365 1.430649,-3.254522 4.411749,-8.838149 4.918752,-9.212879 0.13126,-0.097 0.50568,-0.652634 0.832045,-1.234713 3.10205,-5.532617 11.946195,-14.528469 19.759132,-20.098068 4.206206,-2.998473 14.027638,-8.263241 18.727878,-10.039065 1.16417,-0.43984 2.43417,-0.933133 2.82222,-1.096207 2.0432,-0.858619 9.81745,-3.222794 11.99445,-3.64755 0.58208,-0.11357 2.09021,-0.428297 3.35139,-0.699391 2.30771,-0.496051 7.35795,-1.297965 12.44983,-1.976877 3.5565,-0.474197 18.81607,-0.474197 22.37258,0 5.08884,0.678507 10.14155,1.480707 12.44982,1.976613 1.26118,0.270949 3.00743,0.638294 3.88056,0.816322 2.48048,0.505761 10.20763,2.992347 13.22917,4.257123 13.28321,5.560183 21.6399,10.911566 30.01106,19.21821 5.49571,5.453364 7.20187,7.53483 10.6992,13.05277 4.20959,6.641674 6.74748,13.518755 8.13669,22.048487 2.68879,16.50922 -2.10082,32.97492 -13.85336,47.62497 -3.52788,4.39764 -6.84972,7.61305 -11.88665,11.50577 -5.0787,3.92502 -7.7644,5.60456 -13.94456,8.72047 -11.27014,5.68217 -20.08439,8.46986 -33.15127,10.48478 -6.39644,0.98633 -22.68105,1.27116 -29.33311,0.51306 z m -26.28705,-50.45872 c 1.22947,-0.28984 2.91029,-0.92249 3.73516,-1.40589 0.82486,-0.48341 1.70469,-0.87892 1.95517,-0.87892 0.41902,0 2.29874,-1.47254 4.10561,-3.21626 1.1578,-1.11734 2.94979,-4.87366 3.34623,-7.01429 0.19764,-1.06715 0.44918,-3.41221 0.55899,-5.21124 l 0.19966,-3.27096 -6.8334,0.096 -6.83339,0.096 -0.20921,3.05646 c -0.11507,1.68105 -0.40282,3.52386 -0.63944,4.09512 -0.98693,2.38266 -4.64067,3.57121 -7.08885,2.30598 -2.33706,-1.20781 -2.35677,-1.60658 -0.91656,-18.542181 1.47628,-17.359594 1.61622,-18.243768 3.08282,-19.477822 1.94179,-1.633901 6.33825,-1.052924 7.25481,0.958707 0.23757,0.521397 0.31275,2.025118 0.19535,3.906986 l -0.19087,3.059352 h 6.57611 6.57612 l 0.0532,-2.734012 c 0.0733,-3.766619 -0.004,-4.562916 -0.66192,-6.790934 -0.31496,-1.067144 -0.54341,-2.064013 -0.50767,-2.215255 0.14771,-0.624954 -3.51761,-3.722395 -5.61883,-4.748288 -3.29754,-1.609986 -4.57809,-1.853455 -9.66895,-1.838356 -4.36549,0.01295 -6.36221,0.320149 -8.81944,1.356901 -5.669433,2.392039 -8.273285,5.428935 -9.408132,10.97276 -0.864612,4.223696 -3.730471,31.088632 -3.650396,34.219302 0.104602,4.08964 0.979829,6.55425 3.100242,8.73017 1.575156,1.61639 6.453593,4.2676 8.628596,4.68925 2.4283,0.47076 9.33828,0.35331 11.67899,-0.1985 z m 34.10229,-1.40286 c 0.0206,-0.58208 0.0683,-6.25462 0.10609,-12.60564 l 0.0687,-11.547298 8.73125,-0.0944 8.73125,-0.0944 0.1108,-2.998595 c 0.0609,-1.649231 0.01,-3.832026 -0.11358,-4.85066 l -0.22438,-1.852081 h -8.61767 -8.61767 l 0.003,-5.556217 c 0.002,-3.055915 0.10287,-6.387134 0.22486,-7.402711 l 0.2218,-1.846488 9.56472,-0.0938 9.56472,-0.0938 0.11158,-2.645823 c 0.0614,-1.455208 0.0103,-3.479271 -0.11358,-4.497917 l -0.22516,-1.852083 h -15.65241 c -11.08509,0 -15.72301,0.114221 -15.89434,0.391441 -0.26706,0.432114 -2.25089,58.181982 -2.01365,58.617862 0.0814,0.14958 3.26387,0.22895 7.07212,0.17639 l 6.92409,-0.0956 z m 41.44981,0.87529 c 0,-0.76669 -1.39469,-21.80983 -1.58365,-23.894034 l -0.19989,-2.204848 h 2.08065 2.08064 l 0.43815,1.564911 c 0.24099,0.860707 0.63382,1.640001 0.87296,1.731761 0.23914,0.0918 0.63886,0.89568 0.88826,1.78647 0.24941,0.89079 0.58547,1.61961 0.7468,1.61961 0.16133,0 0.47081,0.6591 0.68773,1.46467 0.21691,0.80557 0.69899,2.03299 1.07128,2.7276 0.37229,0.69461 0.77423,1.78176 0.89319,2.41589 0.11896,0.63412 0.3426,1.15296 0.49698,1.15296 0.15437,0 0.55222,0.86329 0.8841,1.91842 0.33188,1.05514 0.82291,2.00266 1.09117,2.1056 0.26826,0.10294 0.48774,0.39294 0.48774,0.64443 0,0.2515 0.29634,1.01055 0.65853,1.68677 0.36218,0.67622 0.77167,1.74544 0.90997,2.37603 0.1383,0.63059 0.38498,1.14652 0.54817,1.14652 0.1632,0 0.40132,0.47625 0.52917,1.05834 l 0.23245,1.05833 h 7.24216 7.24216 l -0.24072,-0.97014 c -0.1324,-0.53357 -0.38773,-1.02305 -0.56741,-1.08773 -0.17968,-0.0647 -0.3267,-0.32944 -0.3267,-0.58838 0,-0.25893 -0.39687,-1.26094 -0.88194,-2.22669 -0.48507,-0.96575 -0.88194,-1.9313 -0.88194,-2.14565 0,-0.21436 -0.14024,-0.38974 -0.31164,-0.38974 -0.1714,0 -0.40928,-0.27782 -0.52863,-0.61736 -0.11935,-0.33955 -0.77601,-1.56987 -1.45925,-2.73403 -0.68323,-1.16417 -1.34274,-2.41648 -1.46557,-2.78291 -0.12283,-0.36644 -0.59593,-1.36702 -1.05134,-2.22353 -0.45541,-0.85651 -0.82802,-1.73482 -0.82802,-1.95181 0,-0.21699 -0.21198,-0.64515 -0.47107,-0.95147 -0.25908,-0.30632 -0.68976,-1.11257 -0.95707,-1.79167 -0.2673,-0.6791 -0.76179,-1.53399 -1.09887,-1.89976 -0.33708,-0.36577 -0.71276,-1.119827 -0.83485,-1.675684 -0.12209,-0.555857 -0.34655,-1.010654 -0.4988,-1.010654 -0.29209,0 -1.59565,-3.140812 -1.38018,-3.325422 0.0691,-0.0592 0.68735,-0.369197 1.37397,-0.688957 2.83926,-1.322251 5.61678,-4.751093 5.86503,-7.240378 0.0465,-0.466317 0.16325,-1.052944 0.25944,-1.303594 0.29729,-0.774724 -0.82623,-10.094693 -1.44173,-11.959571 -0.86668,-2.625944 -3.93544,-5.971877 -6.61134,-7.208474 -1.17812,-0.544433 -2.77703,-1.104139 -3.55314,-1.243791 -0.77611,-0.139651 -1.63394,-0.438143 -1.90629,-0.663315 -0.59633,-0.493036 -23.9172,-0.837232 -24.38184,-0.359854 -0.29206,0.300064 1.94016,57.702864 2.27814,58.583624 0.22245,0.57969 13.60304,0.67561 13.60304,0.0975 z m -2.60684,-40.121721 c -0.12852,-2.085788 -0.33077,-5.102023 -0.44943,-6.702741 l -0.21576,-2.910395 4.19366,10e-4 c 3.53005,0.001 4.37152,0.10977 5.31766,0.686677 1.58356,0.965554 1.83481,1.616341 2.26174,5.858257 0.40416,4.015746 0.29436,5.05613 -0.65,6.159064 -0.54357,0.634847 -1.04843,0.700157 -5.41184,0.700157 H 184.9199 Z M 24.111307,105.93431 c 0.958039,-0.11429 2.466164,-0.56191 3.351391,-0.9947 0.885227,-0.4328 1.688878,-0.79753 1.785892,-0.81052 0.784035,-0.10499 2.014159,-0.72133 2.368677,-1.1868 0.237108,-0.31132 0.436155,-0.44027 0.442326,-0.28657 0.01408,0.35082 2.928056,-1.30782 4.685526,-2.667007 0.727604,-0.562717 1.322916,-0.926747 1.322916,-0.808957 0,0.19719 1.712006,-0.779104 2.116667,-1.207064 0.534059,-0.564807 2.822223,-2.122418 2.822223,-1.921168 0,0.13065 0.236003,0.0417 0.524451,-0.19771 0.288448,-0.239387 1.720057,-1.025384 3.181354,-1.746648 2.590946,-1.278844 2.639783,-1.326894 1.967224,-1.935551 -0.388239,-0.351347 -0.877411,-0.508117 -1.119196,-0.358687 -0.27498,0.16994 -0.338396,0.11802 -0.176259,-0.14432 0.146679,-0.237337 -0.01596,-0.509147 -0.386465,-0.645897 -0.830386,-0.306497 -3.028358,-1.920868 -3.391282,-2.490835 -0.155165,-0.243677 -0.71079,-0.665637 -1.234722,-0.937684 -0.523933,-0.27204 -1.666981,-1.158784 -2.540106,-1.970528 -2.499192,-2.323518 -2.684344,-2.473698 -3.049879,-2.473698 -0.189672,0 -0.657358,-0.277807 -1.039302,-0.617354 -0.913814,-0.812377 -2.718522,-1.813391 -3.543263,-1.965341 -0.361809,-0.0667 -1.372209,-0.324237 -2.245334,-0.572407 -1.807414,-0.513717 -6.182349,-0.328637 -6.798595,0.28761 -0.218941,0.218937 -0.751859,0.398067 -1.184264,0.398067 -0.432405,0 -1.024316,0.23813 -1.315357,0.529167 -0.291042,0.291037 -0.659569,0.533567 -0.818949,0.538957 -0.478335,0.0162 -2.241482,1.962778 -2.914586,3.217842 -0.438328,0.817304 -0.546765,1.460931 -0.357384,2.121258 0.149529,0.521377 0.1953,1.024524 0.101712,1.118114 -0.325998,0.325997 0.936508,2.301705 1.916926,2.999822 0.543055,0.386687 1.575936,0.813487 2.295292,0.948434 1.647747,0.30912 1.436103,0.670467 -0.708384,1.209434 -0.92493,0.23247 -1.97617,0.688557 -2.336089,1.013524 -0.35992,0.32498 -0.756795,0.564877 -0.881945,0.533117 -0.36388,-0.0924 -2.268204,1.713771 -3.192869,3.028222 -0.897561,1.275924 -1.054096,3.013218 -0.384271,4.264798 0.206694,0.38621 0.277535,0.7022 0.157424,0.7022 -0.35325,0 2.772458,2.81817 3.176563,2.86402 0.202611,0.023 0.566822,0.016 0.809357,-0.0155 0.242535,-0.0315 0.440972,0.0701 0.440972,0.22576 0,0.30922 3.388641,0.2842 6.151608,-0.0454 z m 259.408423,-0.0471 c 6.47716,-2.70633 4.59376,-10.058356 -3.26243,-12.735211 l -1.68231,-0.573214 1.21801,-0.41874 c 1.5413,-0.529867 2.52185,-1.216491 3.48397,-2.439615 1.42706,-1.814211 0.68681,-5.25635 -1.53189,-7.123251 -4.93707,-4.154256 -12.30345,-3.842346 -18.47733,0.782357 -2.73811,2.051058 -6.59251,5.23108 -7.13802,5.889127 -0.26629,0.321227 -0.68587,0.584057 -0.93239,0.584057 -0.24653,0 -0.53961,0.238127 -0.65129,0.529167 -0.11168,0.291037 -0.44617,0.529157 -0.7433,0.529157 -0.29713,0 -0.54024,0.158747 -0.54024,0.352777 0,0.19403 -0.22053,0.352777 -0.49008,0.352777 -0.26955,0 -0.86486,0.30411 -1.32292,0.675787 l -0.83283,0.675797 1.05833,0.262587 c 0.58209,0.14442 1.65049,0.634057 2.37424,1.088084 0.72375,0.454027 1.40184,0.825507 1.50687,0.825507 0.10503,0 0.86225,0.421317 1.68271,0.936254 3.87166,2.429965 5.16146,3.253972 6.97955,4.459006 3.48812,2.31197 9.2826,4.93196 12.50386,5.65367 1.70553,0.38212 5.56648,0.20827 6.79749,-0.30608 z M 68.936093,49.142011 c 1.796333,-0.377049 4.7625,-2.50113 4.7625,-3.410441 0,-0.374844 0.149167,-0.681534 0.331482,-0.681534 0.182316,0 0.380753,-0.579235 0.440973,-1.287188 0.153523,-1.804853 1.136121,-2.367204 2.065761,-1.182256 1.68822,2.151856 2.378805,4.514193 1.780031,6.089087 -0.202097,0.531558 -0.287326,0.966468 -0.189396,0.966468 0.176207,0 8.560421,-5.522021 9.05891,-5.96639 0.142226,-0.126785 -0.802034,-0.206829 -2.098355,-0.177875 -1.296322,0.02895 -2.860963,-0.157948 -3.47698,-0.415336 -0.616017,-0.257388 -1.219569,-0.36844 -1.341228,-0.246781 -0.121658,0.121658 -0.221197,0.04626 -0.221197,-0.167543 0,-0.213806 -0.555625,-0.589656 -1.234723,-0.83522 -1.931419,-0.698411 -1.51931,-1.250422 1.146528,-1.535752 3.00755,-0.321905 3.180884,-0.360009 4.674306,-1.027568 2.128031,-0.951228 3.101989,-2.027142 3.522382,-3.891109 0.229204,-1.01626 0.128355,-1.433076 -0.578565,-2.391251 -0.470885,-0.638248 -1.014169,-1.160452 -1.207298,-1.160452 -0.193128,0 -0.496367,-0.234979 -0.673864,-0.522175 -0.589036,-0.953079 -6.704135,-0.581106 -8.043365,0.489266 -1.649955,1.318718 -2.544291,2.297422 -2.544291,2.784309 0,0.307091 -0.15875,0.656461 -0.352777,0.776377 -0.194028,0.119916 -0.352778,0.52616 -0.352778,0.902764 0,0.376605 -0.141766,0.684736 -0.315035,0.684736 -0.507958,0 -0.800326,-1.083788 -0.924816,-3.428226 -0.135907,-2.559466 -0.956714,-3.658638 -3.243775,-4.343858 -1.7928,-0.537136 -5.192616,-0.252536 -6.452486,0.54014 -0.291042,0.183116 -0.717587,0.361572 -0.947878,0.39657 -1.387262,0.210825 -2.985745,2.859348 -2.765229,4.581704 0.317446,2.479437 2.415048,3.540099 7.345993,3.714533 1.124962,0.0398 2.122233,0.196698 2.216159,0.348673 0.09392,0.151974 0.387756,0.193052 0.652958,0.09128 0.265202,-0.101767 0.586987,-0.01546 0.715078,0.191797 0.152337,0.246487 -0.330986,0.376827 -1.397336,0.376827 -2.609908,0 -6.303796,1.387269 -7.501828,2.817371 -0.758495,0.905424 -1.776644,3.131311 -1.540373,3.367581 0.123114,0.123115 0.224091,0.329678 0.224392,0.45903 0.0013,0.54156 1.667567,2.520058 1.966706,2.33518 0.179191,-0.110746 0.325802,-0.04258 0.325802,0.15148 0,0.809863 3.54438,1.157651 6.173612,0.605778 z M 214.22614,42.213474 c -0.0454,-1.483172 0.14131,-2.069869 1.12267,-3.528164 0.6474,-0.96204 1.07812,-1.749163 0.95714,-1.749163 -0.27828,0 1.07197,-1.031944 1.3701,-1.047114 0.12127,-0.0062 0.30823,0.427513 0.41548,0.963741 0.25937,1.296869 1.125,2.226464 3.19525,3.431392 1.40905,0.820089 2.2076,1.017723 4.48158,1.109143 2.08313,0.08375 2.89562,-0.01736 3.28733,-0.409071 0.28617,-0.286172 0.63224,-0.520313 0.76905,-0.520313 0.42369,0 1.88843,-1.879633 1.70103,-2.182857 -0.0974,-0.157623 -0.0234,-0.286588 0.1644,-0.286588 0.55479,0 0.18352,-4.265455 -0.64952,-7.462111 -0.42208,-1.619658 -0.76338,-3.659208 -0.75844,-4.532333 l 0.009,-1.5875 -9.48731,0.176389 c -6.91911,0.128641 -9.60659,0.295759 -9.92795,0.617361 -0.24235,0.242535 -0.78878,0.440973 -1.21429,0.440973 -0.4255,0 -0.86502,0.238125 -0.9767,0.529166 -0.11169,0.291042 -0.44617,0.529167 -0.7433,0.529167 -0.29713,0 -0.54024,0.238125 -0.54024,0.529167 0,0.291041 -0.13222,0.529166 -0.29382,0.529166 -0.34236,0 -0.30203,0.864699 0.0987,2.116667 0.53288,1.664762 3.98667,4.225374 5.71647,4.23815 1.15081,0.0085 2.23812,0.417952 2.02511,0.762606 -0.18069,0.292365 -1.7661,1.033045 -2.25481,1.053419 -0.097,0.004 -0.57327,0.208999 -1.05834,0.455455 -1.70327,0.865409 -3.22573,1.201993 -5.11128,1.129999 -1.04678,-0.03997 -1.86033,-0.02976 -1.80789,0.02268 0.0524,0.05244 2.22602,1.511729 4.83017,3.242863 2.60416,1.731133 4.73484,3.160835 4.73484,3.177115 0,0.01628 -0.0245,-0.770952 -0.0544,-1.749403 z M 151.87351,24.156128 c 0.65353,-1.452435 4.33174,-5.564425 4.97743,-5.564425 0.17763,0 0.63072,-0.281797 1.00685,-0.626214 1.35756,-1.24309 7.06267,-3.60712 8.70505,-3.60712 1.21841,0 0.29349,-0.629368 -1.58189,-1.076397 -1.01924,-0.242956 -2.56754,-0.761877 -3.44067,-1.153159 -0.87312,-0.391283 -1.66687,-0.731564 -1.76389,-0.75618 -0.80885,-0.20524 -3.44493,-1.8347937 -3.81236,-2.3567024 -0.25354,-0.3601307 -0.61114,-0.6547824 -0.79467,-0.6547824 -0.4758,0 -2.87615,-2.7262635 -3.45786,-3.9273499 -0.49383,-1.0196514 -1.10733,-1.3558931 -1.10733,-0.6068977 0,0.4724747 -2.34632,3.4457562 -3.23635,4.1011336 -0.33524,0.246857 -0.83786,0.6771647 -1.11693,0.9562397 -1.76152,1.7615121 -8.79265,4.7594851 -11.41801,4.8684711 -1.00951,0.04191 0.0533,0.585361 1.5802,0.807988 0.91711,0.133721 2.24313,0.532967 2.94671,0.887212 0.70358,0.354246 1.37827,0.545052 1.4993,0.424013 0.12104,-0.121038 0.22008,-0.02549 0.22008,0.212324 0,0.237817 0.14778,0.34106 0.3284,0.229431 0.18062,-0.11163 0.43416,-0.03183 0.56343,0.177329 0.12927,0.209161 0.5768,0.536067 0.99452,0.726458 2.31788,1.056469 5.63004,3.927948 6.04734,5.242743 0.12526,0.394664 0.3758,0.717571 0.55675,0.717571 0.18095,0 0.329,0.238125 0.329,0.529167 0,0.291041 0.15875,0.529166 0.35278,0.529166 0.19403,0 0.33398,0.119063 0.311,0.264584 -0.25764,1.63176 0.51298,1.429214 1.31112,-0.344603 z"
       id="path1" /></g></svg>
