<?xml version="1.0" encoding="UTF-8" standalone="no"?>
<!-- Uploaded to: SVG Repo, www.svgrepo.com, Generator: SVG Repo Mixer Tools -->

<svg
   fill="#000000"
   width="100"
   height="100"
   viewBox="0 0 4 4"
   id="icon"
   version="1.1"
   sodipodi:docname="no-image.svg"
   inkscape:version="1.3 (0e150ed6c4, 2023-07-21)"
   xmlns:inkscape="http://www.inkscape.org/namespaces/inkscape"
   xmlns:sodipodi="http://sodipodi.sourceforge.net/DTD/sodipodi-0.dtd"
   xmlns="http://www.w3.org/2000/svg"
   xmlns:svg="http://www.w3.org/2000/svg"
   xmlns:rdf="http://www.w3.org/1999/02/22-rdf-syntax-ns#"
   xmlns:cc="http://creativecommons.org/ns#"
   xmlns:dc="http://purl.org/dc/elements/1.1/">
  <sodipodi:namedview
     id="namedview2"
     pagecolor="#ffffff"
     bordercolor="#000000"
     borderopacity="0.25"
     inkscape:showpageshadow="2"
     inkscape:pageopacity="0.0"
     inkscape:pagecheckerboard="0"
     inkscape:deskcolor="#d1d1d1"
     inkscape:zoom="4.065"
     inkscape:cx="49.569496"
     inkscape:cy="56.94957"
     inkscape:window-width="1920"
     inkscape:window-height="1009"
     inkscape:window-x="-8"
     inkscape:window-y="-8"
     inkscape:window-maximized="1"
     inkscape:current-layer="icon" />
  <defs
     id="defs1">
    <style
       id="style1">.cls-1{fill:none;}</style>
  </defs>
  <title
     id="title1">no-image</title>
  <g
     id="g3"
     transform="matrix(0.15142762,0,0,0.15142762,0.00365223,0.00365223)">
    <path
       d="M 24.729315,2.8142785 23.563657,1.648621 1.648621,23.563657 2.8142785,24.729315 4.4628994,23.080694 H 21.432073 a 1.6508466,1.6508466 0 0 0 1.648621,-1.648621 V 4.4628994 Z M 21.432073,21.432073 H 6.1115204 l 6.4237696,-6.423852 1.960869,1.960788 a 1.648621,1.648621 0 0 0 2.33148,0 l 1.307192,-1.30711 3.297242,3.295017 z m 0,-4.807214 -2.131502,-2.131585 a 1.648621,1.648621 0 0 0 -2.33148,0 l -1.307192,1.307274 -1.959386,-1.959468 7.72956,-7.7295596 z"
       id="path1"
       style="fill:#02305f;fill-opacity:1;stroke-width:0.82431" />
    <path
       d="m 4.945863,18.134831 v -2.472932 l 4.1215524,-4.118749 1.1320256,1.132025 1.167141,-1.167224 -1.133427,-1.133426 a 1.648621,1.648621 0 0 0 -2.3314795,0 L 4.945863,13.33042 V 4.945863 H 18.134831 V 3.297242 H 4.945863 A 1.6502696,1.6502696 0 0 0 3.297242,4.945863 v 13.188968 z"
       id="path2"
       style="fill:#02305f;fill-opacity:1;stroke-width:0.82431" />
    <rect
       id="_Transparent_Rectangle_"
       data-name="&lt;Transparent Rectangle&gt;"
       class="cls-1"
       width="26.377935"
       height="26.377935"
       x="0"
       y="0"
       style="stroke-width:0.82431" />
  </g>
  <metadata
     id="metadata1">
    <rdf:RDF>
      <cc:Work
         rdf:about="">
        <dc:title>no-image</dc:title>
      </cc:Work>
    </rdf:RDF>
  </metadata>
</svg>
