<?xml version="1.0" encoding="UTF-8" standalone="no"?>
<!-- Created with Inkscape (http://www.inkscape.org/) -->

<svg
   width="70mm"
   height="70mm"
   viewBox="0 0 70 70"
   version="1.1"
   id="svg1"
   inkscape:version="1.3 (0e150ed6c4, 2023-07-21)"
   sodipodi:docname="no-res.svg"
   xmlns:inkscape="http://www.inkscape.org/namespaces/inkscape"
   xmlns:sodipodi="http://sodipodi.sourceforge.net/DTD/sodipodi-0.dtd"
   xmlns="http://www.w3.org/2000/svg"
   xmlns:svg="http://www.w3.org/2000/svg">
  <sodipodi:namedview
     id="namedview1"
     pagecolor="#ffffff"
     bordercolor="#000000"
     borderopacity="0.25"
     inkscape:showpageshadow="2"
     inkscape:pageopacity="0.0"
     inkscape:pagecheckerboard="0"
     inkscape:deskcolor="#d1d1d1"
     inkscape:document-units="mm"
     showguides="false"
     inkscape:zoom="1.4485269"
     inkscape:cx="70.071186"
     inkscape:cy="137.03577"
     inkscape:window-width="1920"
     inkscape:window-height="1009"
     inkscape:window-x="-8"
     inkscape:window-y="-8"
     inkscape:window-maximized="1"
     inkscape:current-layer="layer1" />
  <defs
     id="defs1" />
  <g
     inkscape:label="Capa 1"
     inkscape:groupmode="layer"
     id="layer1">
    <path
       style="fill:#02305f;fill-opacity:1"
       d="m 50.593444,53.757453 -9.77048,-9.773148 -0.67922,0.47953 c -0.37358,0.26374 -1.55605,0.91954 -2.62771,1.45734 -7.64177,3.834878 -16.97356,2.478438 -23.23633,-3.37754 -4.6735398,-4.36998 -6.9722798,-10.04443 -6.6090798,-16.31451 0.0887,-1.53059 0.35353,-3.49297 0.5886,-4.36085 C 10.936014,11.985455 20.889964,5.2840747 30.871714,6.6446647 c 8.3103,1.13276 14.68767,6.4254103 17.37576,14.4203203 0.64265,1.91137 0.71315,2.5016 0.72686,6.08541 0.0132,3.44832 -0.0661,4.22897 -0.60475,5.95313 -0.89338,2.85968 -2.4938,5.78135 -4.1992,7.66587 l -1.48348,1.6393 9.83987,9.842488 9.83986,9.8425 -0.74991,0.71846 c -0.41245,0.39515 -0.86307,0.71846 -1.00136,0.71846 -0.1383,0 -4.64816,-4.39792 -10.02192,-9.77315 z m -17.57496,-8.618028 c 8.08036,-2.06141 13.72207,-9.40304 13.72207,-17.85673 0,-8.43514 -5.57407,-15.67814 -13.75833,-17.8777403 -2.27595,-0.61168 -6.67714,-0.62436 -8.99583,-0.0259 -6.07001,1.5666303 -11.18571,6.3434703 -13.12275,12.2535303 -0.69425,2.1182 -0.76611,2.67266 -0.74947,5.78243 0.016,2.99705 0.1096,3.71191 0.7272,5.55625 1.88294,5.62293 6.2742,9.9954 11.94721,11.89606 2.97518,0.9968 6.97252,1.10313 10.2299,0.27213 z"
       id="path1" />
    <path
       id="path1-1"
       style="fill:#02305f;fill-opacity:1"
       d="m 23.087975,24.668904 2.672705,2.673739 c 5.373755,5.375224 9.883311,9.773047 10.021611,9.773047 0.13829,0 0.58904,-0.323153 1.001489,-0.718303 l 0.749825,-0.718819 -9.839709,-9.842293 -1.166854,-1.167371 z" />
    <path
       id="path1-1-6"
       style="fill:#02305f;fill-opacity:1"
       d="m 33.400599,31.617507 -2.663138,-2.683268 c -5.354522,-5.394383 -9.848342,-9.808285 -9.986641,-9.808779 -0.138289,-4.93e-4 -0.590191,0.321048 -1.004048,0.714722 l -0.752388,0.716136 9.804493,9.877374 1.162677,1.171532 z" />
    <g
       id="g1"
       transform="rotate(90,32.882105,28.628785)"
       style="fill:#02305f;fill-opacity:1">
      <path
         id="path1-1-7"
         style="fill:#02305f;fill-opacity:1"
         d="m 27.112341,29.620527 2.672705,2.673739 c 5.373755,5.375224 9.883311,9.773047 10.021611,9.773047 0.13829,0 0.58904,-0.323153 1.001489,-0.718303 l 0.749825,-0.718819 -9.839709,-9.842293 -1.166854,-1.167371 z" />
      <path
         id="path1-1-6-2"
         style="fill:#02305f;fill-opacity:1"
         d="m 37.424965,36.56913 -2.663138,-2.683268 c -5.354522,-5.394383 -9.848342,-9.808285 -9.986641,-9.808779 -0.138289,-4.93e-4 -0.590191,0.321048 -1.004048,0.714722 l -0.752388,0.716136 9.804493,9.877374 1.162677,1.171532 z" />
    </g>
  </g>
</svg>
